REM DIRINDEX 1\2,1\3,1\4,1\5
REM DIRNAME folder01,folder02,folder03,folder04,folder05
TITLE ""
FILE "1800_085.mp3" MP3
  TRACK 01 AUDIO
    TITLE "2:cjc044_2249"
    INDEX 01 00:00:00
  TRACK 02 AUDIO
    TITLE "0:"
    INDEX 01 00:01:40
  TRACK 03 AUDIO
    TITLE "3:cjc044_2250"
    INDEX 01 00:02:24
  TRACK 04 AUDIO
    TITLE "0:"
    INDEX 01 00:03:37
  TRACK 05 AUDIO
    TITLE "4:cjc044_2251"
    INDEX 01 00:04:21
  TRACK 06 AUDIO
    TITLE "0:"
    INDEX 01 00:05:69
  TRACK 07 AUDIO
    TITLE "5:cjc044_2252"
    INDEX 01 00:06:41
  TRACK 08 AUDIO
    TITLE "0:"
    INDEX 01 00:09:73
  TRACK 09 AUDIO
    TITLE "2:cjc044_2253"
    INDEX 01 00:11:56
  TRACK 10 AUDIO
    TITLE "0:"
    INDEX 01 00:12:73
  TRACK 11 AUDIO
    TITLE "3:cjc044_2254"
    INDEX 01 00:13:57
  TRACK 12 AUDIO
    TITLE "0:"
    INDEX 01 00:15:03
  TRACK 13 AUDIO
    TITLE "4:cjc044_2255"
    INDEX 01 00:15:66
  TRACK 14 AUDIO
    TITLE "0:"
    INDEX 01 00:17:06
  TRACK 15 AUDIO
    TITLE "5:cjc044_2256"
    INDEX 01 00:17:49
  TRACK 16 AUDIO
    TITLE "0:"
    INDEX 01 00:21:45
  TRACK 17 AUDIO
    TITLE "2:cjc044_2257"
    INDEX 01 00:23:32
  TRACK 18 AUDIO
    TITLE "0:"
    INDEX 01 00:24:57
  TRACK 19 AUDIO
    TITLE "3:cjc044_2258"
    INDEX 01 00:25:37
  TRACK 20 AUDIO
    TITLE "0:"
    INDEX 01 00:26:36
  TRACK 21 AUDIO
    TITLE "4:cjc044_2259"
    INDEX 01 00:27:22
  TRACK 22 AUDIO
    TITLE "0:"
    INDEX 01 00:28:51
  TRACK 23 AUDIO
    TITLE "5:cjc044_2260"
    INDEX 01 00:29:25
  TRACK 24 AUDIO
    TITLE "0:"
    INDEX 01 00:32:21
  TRACK 25 AUDIO
    TITLE "2:cjc044_2261"
    INDEX 01 00:34:10
  TRACK 26 AUDIO
    TITLE "0:"
    INDEX 01 00:35:27
  TRACK 27 AUDIO
    TITLE "3:cjc044_2262"
    INDEX 01 00:36:05
  TRACK 28 AUDIO
    TITLE "0:"
    INDEX 01 00:37:10
  TRACK 29 AUDIO
    TITLE "4:cjc044_2263"
    INDEX 01 00:37:71
  TRACK 30 AUDIO
    TITLE "0:"
    INDEX 01 00:39:15
  TRACK 31 AUDIO
    TITLE "5:cjc044_2264"
    INDEX 01 00:39:64
  TRACK 32 AUDIO
    TITLE "0:"
    INDEX 01 00:42:45
  TRACK 33 AUDIO
    TITLE "2:cjc044_2265"
    INDEX 01 00:44:36
  TRACK 34 AUDIO
    TITLE "0:"
    INDEX 01 00:45:55
  TRACK 35 AUDIO
    TITLE "3:cjc044_2266"
    INDEX 01 00:46:39
  TRACK 36 AUDIO
    TITLE "0:"
    INDEX 01 00:47:42
  TRACK 37 AUDIO
    TITLE "4:cjc044_2267"
    INDEX 01 00:48:30
  TRACK 38 AUDIO
    TITLE "0:"
    INDEX 01 00:49:49
  TRACK 39 AUDIO
    TITLE "5:cjc044_2268"
    INDEX 01 00:50:39
  TRACK 40 AUDIO
    TITLE "0:"
    INDEX 01 00:54:13
  TRACK 41 AUDIO
    TITLE "2:cjc044_2269"
    INDEX 01 00:55:69
  TRACK 42 AUDIO
    TITLE "0:"
    INDEX 01 00:57:13
  TRACK 43 AUDIO
    TITLE "3:cjc044_2270"
    INDEX 01 00:57:70
  TRACK 44 AUDIO
    TITLE "0:"
    INDEX 01 00:58:69
  TRACK 45 AUDIO
    TITLE "4:cjc044_2271"
    INDEX 01 00:59:53
  TRACK 46 AUDIO
    TITLE "0:"
    INDEX 01 01:00:72
  TRACK 47 AUDIO
    TITLE "5:cjc044_2272"
    INDEX 01 01:01:48
  TRACK 48 AUDIO
    TITLE "0:"
    INDEX 01 01:03:45
  TRACK 49 AUDIO
    TITLE "2:cjc044_2273"
    INDEX 01 01:05:36
  TRACK 50 AUDIO
    TITLE "0:"
    INDEX 01 01:06:63
  TRACK 51 AUDIO
    TITLE "3:cjc044_2274"
    INDEX 01 01:07:45
  TRACK 52 AUDIO
    TITLE "0:"
    INDEX 01 01:08:54
  TRACK 53 AUDIO
    TITLE "4:cjc044_2275"
    INDEX 01 01:09:36
  TRACK 54 AUDIO
    TITLE "0:"
    INDEX 01 01:10:63
  TRACK 55 AUDIO
    TITLE "5:cjc044_2276"
    INDEX 01 01:11:49
  TRACK 56 AUDIO
    TITLE "0:"
    INDEX 01 01:14:19
  TRACK 57 AUDIO
    TITLE "2:cjc044_2277"
    INDEX 01 01:15:74
  TRACK 58 AUDIO
    TITLE "0:"
    INDEX 01 01:17:10
  TRACK 59 AUDIO
    TITLE "3:cjc044_2278"
    INDEX 01 01:18:04
  TRACK 60 AUDIO
    TITLE "0:"
    INDEX 01 01:19:21
  TRACK 61 AUDIO
    TITLE "4:cjc044_2279"
    INDEX 01 01:20:08
  TRACK 62 AUDIO
    TITLE "0:"
    INDEX 01 01:21:21
  TRACK 63 AUDIO
    TITLE "5:cjc044_2280"
    INDEX 01 01:21:70
  TRACK 64 AUDIO
    TITLE "0:"
    INDEX 01 01:25:31
  TRACK 65 AUDIO
    TITLE "2:cjc044_2281"
    INDEX 01 01:27:18
  TRACK 66 AUDIO
    TITLE "0:"
    INDEX 01 01:28:37
  TRACK 67 AUDIO
    TITLE "3:cjc044_2282"
    INDEX 01 01:29:23
  TRACK 68 AUDIO
    TITLE "0:"
    INDEX 01 01:31:06
  TRACK 69 AUDIO
    TITLE "4:cjc044_2283"
    INDEX 01 01:31:65
  TRACK 70 AUDIO
    TITLE "0:"
    INDEX 01 01:33:09
  TRACK 71 AUDIO
    TITLE "5:cjc044_2284"
    INDEX 01 01:33:64
  TRACK 72 AUDIO
    TITLE "0:"
    INDEX 01 01:36:45
